<mxfile host="65bd71144e">
    <diagram id="h93wKYhP9zOY4UT5AyGt" name="第 1 页">
        <mxGraphModel dx="1795" dy="397" grid="1" gridSize="10" guides="1" tooltips="1" connect="1" arrows="1" fold="1" page="1" pageScale="1" pageWidth="827" pageHeight="1169" math="0" shadow="0">
            <root>
                <mxCell id="0"/>
                <mxCell id="1" parent="0"/>
                <mxCell id="23" value="" style="rounded=1;whiteSpace=wrap;html=1;" vertex="1" parent="1">
                    <mxGeometry x="-191" y="239" width="360" height="300" as="geometry"/>
                </mxCell>
                <mxCell id="16" value="" style="rounded=1;whiteSpace=wrap;html=1;" vertex="1" parent="1">
                    <mxGeometry x="-176" y="399" width="330" height="120" as="geometry"/>
                </mxCell>
                <mxCell id="3" value="init" style="text;html=1;strokeColor=none;fillColor=none;align=center;verticalAlign=middle;whiteSpace=wrap;rounded=0;" vertex="1" parent="1">
                    <mxGeometry x="-166" y="399" width="60" height="30" as="geometry"/>
                </mxCell>
                <mxCell id="4" value="arr[0]" style="text;html=1;strokeColor=none;fillColor=none;align=center;verticalAlign=middle;whiteSpace=wrap;rounded=0;" vertex="1" parent="1">
                    <mxGeometry x="-96" y="399" width="60" height="30" as="geometry"/>
                </mxCell>
                <mxCell id="5" value="参数" style="rounded=0;whiteSpace=wrap;html=1;" vertex="1" parent="1">
                    <mxGeometry x="-176" y="319" width="120" height="60" as="geometry"/>
                </mxCell>
                <mxCell id="6" value="返回值" style="rounded=0;whiteSpace=wrap;html=1;" vertex="1" parent="1">
                    <mxGeometry x="34" y="319" width="120" height="60" as="geometry"/>
                </mxCell>
                <mxCell id="7" value="result1" style="text;html=1;align=center;verticalAlign=middle;resizable=0;points=[];autosize=1;strokeColor=none;fillColor=none;" vertex="1" parent="1">
                    <mxGeometry x="84" y="399" width="60" height="30" as="geometry"/>
                </mxCell>
                <mxCell id="9" value="arr[1]" style="text;html=1;strokeColor=none;fillColor=none;align=center;verticalAlign=middle;whiteSpace=wrap;rounded=0;" vertex="1" parent="1">
                    <mxGeometry x="-96" y="439" width="60" height="30" as="geometry"/>
                </mxCell>
                <mxCell id="10" value="result1" style="text;html=1;align=center;verticalAlign=middle;resizable=0;points=[];autosize=1;strokeColor=none;fillColor=none;" vertex="1" parent="1">
                    <mxGeometry x="-166" y="439" width="60" height="30" as="geometry"/>
                </mxCell>
                <mxCell id="11" value="result2" style="text;html=1;align=center;verticalAlign=middle;resizable=0;points=[];autosize=1;strokeColor=none;fillColor=none;" vertex="1" parent="1">
                    <mxGeometry x="84" y="439" width="60" height="30" as="geometry"/>
                </mxCell>
                <mxCell id="12" value="result2" style="text;html=1;align=center;verticalAlign=middle;resizable=0;points=[];autosize=1;strokeColor=none;fillColor=none;" vertex="1" parent="1">
                    <mxGeometry x="-166" y="479" width="60" height="30" as="geometry"/>
                </mxCell>
                <mxCell id="13" value="arr[2]" style="text;html=1;strokeColor=none;fillColor=none;align=center;verticalAlign=middle;whiteSpace=wrap;rounded=0;" vertex="1" parent="1">
                    <mxGeometry x="-96" y="479" width="60" height="30" as="geometry"/>
                </mxCell>
                <mxCell id="14" value="result3" style="text;html=1;align=center;verticalAlign=middle;resizable=0;points=[];autosize=1;strokeColor=none;fillColor=none;" vertex="1" parent="1">
                    <mxGeometry x="84" y="479" width="60" height="30" as="geometry"/>
                </mxCell>
                <mxCell id="19" value="reduce函数实现加和" style="text;html=1;align=center;verticalAlign=middle;resizable=0;points=[];autosize=1;strokeColor=none;fillColor=none;" vertex="1" parent="1">
                    <mxGeometry x="-480" y="167" width="130" height="30" as="geometry"/>
                </mxCell>
                <mxCell id="20" value="参数" style="rounded=0;whiteSpace=wrap;html=1;" vertex="1" parent="1">
                    <mxGeometry x="-191" y="164" width="510" height="60" as="geometry"/>
                </mxCell>
                <mxCell id="24" value="init" style="rounded=1;whiteSpace=wrap;html=1;" vertex="1" parent="1">
                    <mxGeometry x="199" y="239" width="120" height="300" as="geometry"/>
                </mxCell>
                <mxCell id="26" value="回调函数" style="text;html=1;align=center;verticalAlign=middle;resizable=0;points=[];autosize=1;strokeColor=none;fillColor=none;" vertex="1" parent="1">
                    <mxGeometry x="-171" y="254" width="70" height="30" as="geometry"/>
                </mxCell>
                <mxCell id="28" value="初始值" style="text;html=1;align=center;verticalAlign=middle;resizable=0;points=[];autosize=1;strokeColor=none;fillColor=none;" vertex="1" parent="1">
                    <mxGeometry x="204" y="249" width="60" height="30" as="geometry"/>
                </mxCell>
                <mxCell id="29" value="" style="endArrow=classic;html=1;dashed=1;" edge="1" parent="1" source="24" target="3">
                    <mxGeometry width="50" height="50" relative="1" as="geometry">
                        <mxPoint x="14" y="359" as="sourcePoint"/>
                        <mxPoint x="64" y="309" as="targetPoint"/>
                        <Array as="points">
                            <mxPoint x="34" y="389"/>
                            <mxPoint x="-86" y="409"/>
                            <mxPoint x="-106" y="414"/>
                        </Array>
                    </mxGeometry>
                </mxCell>
                <mxCell id="32" value="返回值" style="rounded=0;whiteSpace=wrap;html=1;" vertex="1" parent="1">
                    <mxGeometry x="374" y="164" width="120" height="60" as="geometry"/>
                </mxCell>
                <mxCell id="33" value="resultFinally" style="rounded=1;whiteSpace=wrap;html=1;" vertex="1" parent="1">
                    <mxGeometry x="374" y="239" width="120" height="300" as="geometry"/>
                </mxCell>
                <mxCell id="34" value="" style="endArrow=classic;html=1;dashed=1;" edge="1" parent="1" target="33">
                    <mxGeometry width="50" height="50" relative="1" as="geometry">
                        <mxPoint x="134" y="494" as="sourcePoint"/>
                        <mxPoint x="174" y="279" as="targetPoint"/>
                    </mxGeometry>
                </mxCell>
                <mxCell id="57" value="有初始值" style="text;html=1;align=center;verticalAlign=middle;resizable=0;points=[];autosize=1;strokeColor=none;fillColor=none;" vertex="1" parent="1">
                    <mxGeometry x="-310" y="167" width="70" height="30" as="geometry"/>
                </mxCell>
                <mxCell id="58" value="" style="rounded=1;whiteSpace=wrap;html=1;" vertex="1" parent="1">
                    <mxGeometry x="-191" y="702" width="360" height="300" as="geometry"/>
                </mxCell>
                <mxCell id="59" value="" style="rounded=1;whiteSpace=wrap;html=1;" vertex="1" parent="1">
                    <mxGeometry x="-176" y="887" width="330" height="95" as="geometry"/>
                </mxCell>
                <mxCell id="62" value="参数" style="rounded=0;whiteSpace=wrap;html=1;" vertex="1" parent="1">
                    <mxGeometry x="-176" y="782" width="120" height="60" as="geometry"/>
                </mxCell>
                <mxCell id="63" value="返回值" style="rounded=0;whiteSpace=wrap;html=1;" vertex="1" parent="1">
                    <mxGeometry x="34" y="782" width="120" height="60" as="geometry"/>
                </mxCell>
                <mxCell id="65" value="arr[1]" style="text;html=1;strokeColor=none;fillColor=none;align=center;verticalAlign=middle;whiteSpace=wrap;rounded=0;" vertex="1" parent="1">
                    <mxGeometry x="-96" y="902" width="60" height="30" as="geometry"/>
                </mxCell>
                <mxCell id="66" value="arr[0]" style="text;html=1;align=center;verticalAlign=middle;resizable=0;points=[];autosize=1;strokeColor=none;fillColor=none;" vertex="1" parent="1">
                    <mxGeometry x="-161" y="902" width="50" height="30" as="geometry"/>
                </mxCell>
                <mxCell id="67" value="result1" style="text;html=1;align=center;verticalAlign=middle;resizable=0;points=[];autosize=1;strokeColor=none;fillColor=none;" vertex="1" parent="1">
                    <mxGeometry x="84" y="902" width="60" height="30" as="geometry"/>
                </mxCell>
                <mxCell id="68" value="result1" style="text;html=1;align=center;verticalAlign=middle;resizable=0;points=[];autosize=1;strokeColor=none;fillColor=none;" vertex="1" parent="1">
                    <mxGeometry x="-166" y="942" width="60" height="30" as="geometry"/>
                </mxCell>
                <mxCell id="69" value="arr[2]" style="text;html=1;strokeColor=none;fillColor=none;align=center;verticalAlign=middle;whiteSpace=wrap;rounded=0;" vertex="1" parent="1">
                    <mxGeometry x="-96" y="942" width="60" height="30" as="geometry"/>
                </mxCell>
                <mxCell id="70" value="result2" style="text;html=1;align=center;verticalAlign=middle;resizable=0;points=[];autosize=1;strokeColor=none;fillColor=none;" vertex="1" parent="1">
                    <mxGeometry x="84" y="942" width="60" height="30" as="geometry"/>
                </mxCell>
                <mxCell id="71" value="参数" style="rounded=0;whiteSpace=wrap;html=1;" vertex="1" parent="1">
                    <mxGeometry x="-191" y="627" width="361" height="60" as="geometry"/>
                </mxCell>
                <mxCell id="73" value="回调函数" style="text;html=1;align=center;verticalAlign=middle;resizable=0;points=[];autosize=1;strokeColor=none;fillColor=none;" vertex="1" parent="1">
                    <mxGeometry x="-171" y="717" width="70" height="30" as="geometry"/>
                </mxCell>
                <mxCell id="76" value="返回值" style="rounded=0;whiteSpace=wrap;html=1;" vertex="1" parent="1">
                    <mxGeometry x="220" y="630" width="120" height="60" as="geometry"/>
                </mxCell>
                <mxCell id="77" value="resultFinally" style="rounded=1;whiteSpace=wrap;html=1;" vertex="1" parent="1">
                    <mxGeometry x="220" y="705" width="120" height="300" as="geometry"/>
                </mxCell>
                <mxCell id="78" value="" style="endArrow=classic;html=1;dashed=1;" edge="1" parent="1" target="77">
                    <mxGeometry width="50" height="50" relative="1" as="geometry">
                        <mxPoint x="134" y="957" as="sourcePoint"/>
                        <mxPoint x="174" y="742" as="targetPoint"/>
                    </mxGeometry>
                </mxCell>
                <mxCell id="79" value="无初始值" style="text;html=1;align=center;verticalAlign=middle;resizable=0;points=[];autosize=1;strokeColor=none;fillColor=none;" vertex="1" parent="1">
                    <mxGeometry x="-310" y="630" width="70" height="30" as="geometry"/>
                </mxCell>
            </root>
        </mxGraphModel>
    </diagram>
</mxfile>